<svg width="48" height="48" viewBox="0 0 48 48" fill="none" xmlns="http://www.w3.org/2000/svg">
<path d="M24.0013 10.667C27.3363 14.3181 29.2316 19.0564 29.3346 24.0003C29.2316 28.9443 27.3363 33.6825 24.0013 37.3337M24.0013 10.667C20.6663 14.3181 18.771 19.0564 18.668 24.0003C18.771 28.9443 20.6663 33.6825 24.0013 37.3337M24.0013 10.667C16.6375 10.667 10.668 16.6365 10.668 24.0003C10.668 31.3641 16.6375 37.3337 24.0013 37.3337M24.0013 10.667C31.3651 10.667 37.3346 16.6365 37.3346 24.0003C37.3346 31.3641 31.3651 37.3337 24.0013 37.3337M11.3347 20.0003H36.668M11.3346 28.0003H36.668" stroke="#D22422" stroke-width="3" stroke-linecap="round" stroke-linejoin="round"/>
</svg>
