<svg width="48" height="48" viewBox="0 0 48 48" fill="none" xmlns="http://www.w3.org/2000/svg">
<path d="M24.0013 35.2966C25.4166 36.5634 27.2857 37.3337 29.3346 37.3337C33.7529 37.3337 37.3346 33.752 37.3346 29.3337C37.3346 25.6444 34.8374 22.5384 31.4411 21.6139M16.5615 21.6139C13.1652 22.5384 10.668 25.6444 10.668 29.3337C10.668 33.7519 14.2497 37.3337 18.668 37.3337C23.0862 37.3337 26.668 33.7519 26.668 29.3337C26.668 28.293 26.4693 27.2987 26.1077 26.3868M32.0013 18.667C32.0013 23.0853 28.4196 26.667 24.0013 26.667C19.583 26.667 16.0013 23.0853 16.0013 18.667C16.0013 14.2487 19.583 10.667 24.0013 10.667C28.4196 10.667 32.0013 14.2487 32.0013 18.667Z" stroke="#D22422" stroke-width="3" stroke-linecap="round" stroke-linejoin="round"/>
</svg>
