<svg width="48" height="48" viewBox="0 0 48 48" fill="none" xmlns="http://www.w3.org/2000/svg">
<path d="M26.668 37.3337H17.068M17.068 37.3337C14.8278 37.3337 13.7077 37.3337 12.852 36.8977C12.0994 36.5142 11.4874 35.9023 11.1039 35.1496C10.668 34.294 10.668 33.1739 10.668 30.9337M17.068 37.3337H17.6013C19.8415 37.3337 20.9616 37.3337 21.8173 36.8977C22.5699 36.5142 23.1818 35.9023 23.5653 35.1496C24.0013 34.294 24.0013 33.1739 24.0013 30.9337V30.4003C24.0013 28.1601 24.0013 27.04 23.5653 26.1844C23.1818 25.4317 22.5699 24.8198 21.8173 24.4363C20.9616 24.0003 19.8415 24.0003 17.6013 24.0003H17.068C14.8278 24.0003 13.7077 24.0003 12.852 24.4363C12.0994 24.8198 11.4874 25.4317 11.1039 26.1844C10.668 27.04 10.668 28.1601 10.668 30.4003V30.9337M10.668 30.9337V21.3337M21.3346 10.667H26.668M37.3346 21.3337V26.667M32.0013 37.3337C33.2413 37.3337 33.8612 37.3337 34.3699 37.1974C35.7503 36.8275 36.8285 35.7493 37.1983 34.3689C37.3346 33.8603 37.3346 33.2403 37.3346 32.0003M37.3346 16.0003C37.3346 14.7604 37.3346 14.1404 37.1983 13.6317C36.8285 12.2513 35.7503 11.1732 34.3699 10.8033C33.8612 10.667 33.2413 10.667 32.0013 10.667M16.0013 10.667C14.7613 10.667 14.1414 10.667 13.6327 10.8033C12.2523 11.1732 11.1741 12.2513 10.8043 13.6317C10.668 14.1404 10.668 14.7604 10.668 16.0003" stroke="#D22422" stroke-width="3" stroke-linecap="round" stroke-linejoin="round"/>
</svg>
