<svg width="100" height="100" viewBox="0 0 100 100" fill="none" xmlns="http://www.w3.org/2000/svg">
<path d="M39.1463 80.7127L41.5815 86.1895C42.3054 87.8198 43.4868 89.205 44.9825 90.1772C46.4781 91.1493 48.2236 91.6666 50.0074 91.6663C51.7912 91.6666 53.5368 91.1493 55.0324 90.1772C56.528 89.205 57.7095 87.8198 58.4334 86.1895L60.8686 80.7127C61.7354 78.7693 63.1936 77.1491 65.0352 76.083C66.8885 75.014 69.0324 74.5586 71.1602 74.7821L77.1186 75.4163C78.8922 75.604 80.6821 75.273 82.2714 74.4636C83.8607 73.6541 85.181 72.401 86.0723 70.8562C86.9647 69.3122 87.3898 67.5425 87.2961 65.7617C87.2025 63.9809 86.594 62.2655 85.5445 60.8238L82.0167 55.9765C80.7605 54.2377 80.0894 52.1447 80.1 49.9997C80.0996 47.8605 80.7771 45.7761 82.0352 44.046L85.563 39.1988C86.6125 37.757 87.221 36.0416 87.3147 34.2608C87.4083 32.48 86.9832 30.7103 86.0908 29.1663C85.1995 27.6215 83.8792 26.3684 82.2899 25.559C80.7007 24.7495 78.9107 24.4186 77.1371 24.6062L71.1787 25.2404C69.051 25.4639 66.907 25.0085 65.0537 23.9395C63.2084 22.8674 61.7499 21.2387 60.8871 19.2867L58.4334 13.8099C57.7095 12.1796 56.528 10.7943 55.0324 9.82217C53.5368 8.85002 51.7912 8.33272 50.0074 8.33301C48.2236 8.33272 46.4781 8.85002 44.9825 9.82217C43.4868 10.7943 42.3054 12.1796 41.5815 13.8099L39.1463 19.2867C38.2835 21.2387 36.825 22.8674 34.9797 23.9395C33.1264 25.0085 30.9825 25.4639 28.8547 25.2404L22.8778 24.6062C21.1042 24.4186 19.3142 24.7495 17.725 25.559C16.1357 26.3684 14.8154 27.6215 13.9241 29.1663C13.0317 30.7103 12.6065 32.48 12.7002 34.2608C12.7939 36.0416 13.4024 37.757 14.4519 39.1988L17.9797 44.046C19.2378 45.7761 19.9152 47.8605 19.9149 49.9997C19.9152 52.1389 19.2378 54.2232 17.9797 55.9534L14.4519 60.8006C13.4024 62.2424 12.7939 63.9577 12.7002 65.7385C12.6065 67.5194 13.0317 69.2891 13.9241 70.833C14.8163 72.3771 16.1367 73.6295 17.7258 74.4388C19.3148 75.2481 21.1043 75.5796 22.8778 75.3932L28.8361 74.7589C30.9639 74.5355 33.1079 74.9908 34.9611 76.0599C36.8133 77.1289 38.2787 78.758 39.1463 80.7127Z" stroke="#D22422" stroke-width="2" stroke-linecap="round" stroke-linejoin="round"/>
<path d="M50 62.4997C56.9036 62.4997 62.5 56.9032 62.5 49.9997C62.5 43.0961 56.9036 37.4997 50 37.4997C43.0964 37.4997 37.5 43.0961 37.5 49.9997C37.5 56.9032 43.0964 62.4997 50 62.4997Z" stroke="#D22422" stroke-width="2" stroke-linecap="round" stroke-linejoin="round"/>
</svg>
