<svg width="100" height="100" viewBox="0 0 100 100" fill="none" xmlns="http://www.w3.org/2000/svg">
<path d="M41.6654 73.5771V83.333C41.6654 87.9354 45.3963 91.6663 49.9987 91.6663C54.6011 91.6663 58.332 87.9354 58.332 83.333V73.5771M49.9987 8.33301V12.4997M12.4987 49.9997H8.33203M22.9154 22.9163L20.415 20.4159M77.082 22.9163L79.5831 20.4159M91.6654 49.9997H87.4987M74.9987 49.9997C74.9987 63.8068 63.8058 74.9997 49.9987 74.9997C36.1916 74.9997 24.9987 63.8068 24.9987 49.9997C24.9987 36.1926 36.1916 24.9997 49.9987 24.9997C63.8058 24.9997 74.9987 36.1926 74.9987 49.9997Z" stroke="#D22422" stroke-width="2" stroke-linecap="round" stroke-linejoin="round"/>
</svg>
