<svg width="942" height="98" viewBox="0 0 942 98" fill="none" xmlns="http://www.w3.org/2000/svg">
<g clip-path="url(#clip0_1628_15211)">
<path d="M46.848 95.536C38.2293 95.536 30.336 94.3413 23.168 91.952C16 89.4773 10.496 86.192 6.656 82.096L16 67.888C19.84 71.472 24.4907 74.16 29.952 75.952C35.4987 77.6587 40.8747 78.512 46.08 78.512C51.2853 78.512 55.5947 77.616 59.008 75.824C62.5067 73.9467 64.256 71.6 64.256 68.784C64.256 66.48 63.3173 64.6027 61.44 63.152C59.5627 61.7013 57.216 60.5493 54.4 59.696C51.584 58.8427 47.5307 57.8187 42.24 56.624C34.6453 54.9173 28.416 53.2107 23.552 51.504C18.688 49.712 14.5067 46.9813 11.008 43.312C7.50933 39.6427 5.76 34.736 5.76 28.592C5.76 22.96 7.424 18.1813 10.752 14.256C14.08 10.3307 18.5173 7.38666 24.064 5.424C29.6107 3.46133 35.7547 2.48 42.496 2.48C51.0293 2.48 58.624 3.67466 65.28 6.064C71.936 8.368 77.2267 11.6107 81.152 15.792L72.064 30.128C68.1387 26.4587 63.5307 23.7707 58.24 22.064C53.0347 20.272 47.872 19.376 42.752 19.376C37.8027 19.376 33.792 20.272 30.72 22.064C27.7333 23.7707 26.24 26.0747 26.24 28.976C26.24 31.28 27.1787 33.2 29.056 34.736C31.0187 36.1867 33.408 37.3387 36.224 38.192C39.04 39.0453 43.0933 40.0693 48.384 41.264C55.9787 42.8853 62.1653 44.592 66.944 46.384C71.808 48.0907 75.9893 50.7787 79.488 54.448C82.9867 58.1173 84.736 63.0667 84.736 69.296C84.736 74.928 82.9867 79.7493 79.488 83.76C76.0747 87.6853 71.4667 90.6293 65.664 92.592C59.9467 94.5547 53.6747 95.536 46.848 95.536ZM103.345 4.39999H177.457V21.68H124.465V40.496H169.009V57.776H124.465V76.72H177.457V94H103.345V4.39999ZM199.245 4.39999H222.925L263.373 61.488V4.39999H284.493V94H261.069L220.365 36.784V94H199.245V4.39999ZM346.048 95.536C337.429 95.536 329.536 94.3413 322.368 91.952C315.2 89.4773 309.696 86.192 305.856 82.096L315.2 67.888C319.04 71.472 323.691 74.16 329.152 75.952C334.699 77.6587 340.075 78.512 345.28 78.512C350.485 78.512 354.795 77.616 358.208 75.824C361.707 73.9467 363.456 71.6 363.456 68.784C363.456 66.48 362.517 64.6027 360.64 63.152C358.763 61.7013 356.416 60.5493 353.6 59.696C350.784 58.8427 346.731 57.8187 341.44 56.624C333.845 54.9173 327.616 53.2107 322.752 51.504C317.888 49.712 313.707 46.9813 310.208 43.312C306.709 39.6427 304.96 34.736 304.96 28.592C304.96 22.96 306.624 18.1813 309.952 14.256C313.28 10.3307 317.717 7.38666 323.264 5.424C328.811 3.46133 334.955 2.48 341.696 2.48C350.229 2.48 357.824 3.67466 364.48 6.064C371.136 8.368 376.427 11.6107 380.352 15.792L371.264 30.128C367.339 26.4587 362.731 23.7707 357.44 22.064C352.235 20.272 347.072 19.376 341.952 19.376C337.003 19.376 332.992 20.272 329.92 22.064C326.933 23.7707 325.44 26.0747 325.44 28.976C325.44 31.28 326.379 33.2 328.256 34.736C330.219 36.1867 332.608 37.3387 335.424 38.192C338.24 39.0453 342.293 40.0693 347.584 41.264C355.179 42.8853 361.365 44.592 366.144 46.384C371.008 48.0907 375.189 50.7787 378.688 54.448C382.187 58.1173 383.936 63.0667 383.936 69.296C383.936 74.928 382.187 79.7493 378.688 83.76C375.275 87.6853 370.667 90.6293 364.864 92.592C359.147 94.5547 352.875 95.536 346.048 95.536ZM445.952 95.536C437.504 95.536 429.696 93.488 422.528 89.392C415.36 85.2107 409.643 79.5787 405.376 72.496C401.195 65.328 399.104 57.4773 399.104 48.944C399.104 40.4107 401.195 32.6027 405.376 25.52C409.643 18.352 415.36 12.72 422.528 8.62399C429.696 4.44266 437.504 2.352 445.952 2.352C454.4 2.352 462.208 4.44266 469.376 8.62399C476.544 12.72 482.219 18.352 486.4 25.52C490.667 32.6027 492.8 40.4107 492.8 48.944C492.8 57.4773 490.667 65.328 486.4 72.496C482.219 79.5787 476.544 85.2107 469.376 89.392C462.208 93.488 454.4 95.536 445.952 95.536ZM445.952 77.488C450.731 77.488 455.125 76.2507 459.136 73.776C463.232 71.216 466.432 67.76 468.736 63.408C471.125 58.9707 472.32 54.1493 472.32 48.944C472.32 43.6533 471.125 38.832 468.736 34.48C466.432 30.0427 463.232 26.5867 459.136 24.112C455.125 21.552 450.731 20.272 445.952 20.272C441.173 20.272 436.779 21.552 432.768 24.112C428.757 26.5867 425.557 30.0427 423.168 34.48C420.779 38.832 419.584 43.6533 419.584 48.944C419.584 54.1493 420.779 58.9707 423.168 63.408C425.557 67.76 428.757 71.216 432.768 73.776C436.779 76.2507 441.173 77.488 445.952 77.488ZM512.445 4.39999H554.429C562.706 4.39999 569.618 5.68 575.165 8.24C580.797 10.8 584.936 14.2987 587.581 18.736C590.312 23.1733 591.677 28.208 591.677 33.84C591.677 39.8133 590.184 45.0613 587.197 49.584C584.21 54.0213 579.773 57.392 573.885 59.696L595.133 94H572.349L554.173 63.536H533.565V94H512.445V4.39999ZM554.429 46.256C559.72 46.256 563.73 45.1467 566.461 42.928C569.192 40.7093 570.557 37.68 570.557 33.84C570.557 29.9147 569.192 26.928 566.461 24.88C563.816 22.7467 559.805 21.68 554.429 21.68H533.565V46.256H554.429ZM613.095 4.39999H634.215V94H613.095V4.39999ZM695.773 95.536C687.154 95.536 679.261 94.3413 672.093 91.952C664.925 89.4773 659.421 86.192 655.581 82.096L664.925 67.888C668.765 71.472 673.416 74.16 678.877 75.952C684.424 77.6587 689.8 78.512 695.005 78.512C700.21 78.512 704.52 77.616 707.933 75.824C711.432 73.9467 713.181 71.6 713.181 68.784C713.181 66.48 712.242 64.6027 710.365 63.152C708.488 61.7013 706.141 60.5493 703.325 59.696C700.509 58.8427 696.456 57.8187 691.165 56.624C683.57 54.9173 677.341 53.2107 672.477 51.504C667.613 49.712 663.432 46.9813 659.933 43.312C656.434 39.6427 654.685 34.736 654.685 28.592C654.685 22.96 656.349 18.1813 659.677 14.256C663.005 10.3307 667.442 7.38666 672.989 5.424C678.536 3.46133 684.68 2.48 691.421 2.48C699.954 2.48 707.549 3.67466 714.205 6.064C720.861 8.368 726.152 11.6107 730.077 15.792L720.989 30.128C717.064 26.4587 712.456 23.7707 707.165 22.064C701.96 20.272 696.797 19.376 691.677 19.376C686.728 19.376 682.717 20.272 679.645 22.064C676.658 23.7707 675.165 26.0747 675.165 28.976C675.165 31.28 676.104 33.2 677.981 34.736C679.944 36.1867 682.333 37.3387 685.149 38.192C687.965 39.0453 692.018 40.0693 697.309 41.264C704.904 42.8853 711.09 44.592 715.869 46.384C720.733 48.0907 724.914 50.7787 728.413 54.448C731.912 58.1173 733.661 63.0667 733.661 69.296C733.661 74.928 731.912 79.7493 728.413 83.76C725 87.6853 720.392 90.6293 714.589 92.592C708.872 94.5547 702.6 95.536 695.773 95.536ZM795.421 95.536C786.802 95.536 778.952 93.4453 771.869 89.264C764.786 85.0827 759.154 79.4507 754.973 72.368C750.877 65.2853 748.829 57.52 748.829 49.072C748.829 40.624 750.877 32.8587 754.973 25.776C759.069 18.608 764.658 12.9333 771.741 8.752C778.909 4.57066 786.802 2.48 795.421 2.48C802.845 2.48 809.8 4.14399 816.285 7.47199C822.856 10.8 828.317 15.3653 832.669 21.168L817.949 32.176C812.061 24.3253 804.68 20.4 795.805 20.4C790.77 20.4 786.162 21.7227 781.981 24.368C777.8 27.0133 774.514 30.5547 772.125 34.992C769.736 39.344 768.541 44.0373 768.541 49.072C768.541 54.0213 769.736 58.7147 772.125 63.152C774.514 67.504 777.8 71.0027 781.981 73.648C786.162 76.2933 790.77 77.616 795.805 77.616C804.594 77.616 811.976 73.648 817.949 65.712L832.669 76.976C828.317 82.6933 822.898 87.216 816.413 90.544C809.928 93.872 802.93 95.536 795.421 95.536ZM851.92 4.39999H873.04V45.872H911.44V4.39999H932.56V94H911.44V63.152H873.04V94H851.92V4.39999Z" fill="url(#paint0_linear_1628_15211)"/>
</g>
<defs>
<linearGradient id="paint0_linear_1628_15211" x1="438.928" y1="100" x2="438.928" y2="58" gradientUnits="userSpaceOnUse">
<stop stop-color="white" stop-opacity="0"/>
<stop offset="1" stop-color="white"/>
</linearGradient>
<clipPath id="clip0_1628_15211">
<rect width="942" height="98" fill="white"/>
</clipPath>
</defs>
</svg>
